<?xml version="1.0" encoding="utf-8"?>
<!-- Generator: Adobe Illustrator 15.1.0, SVG Export Plug-In . SVG Version: 6.00 Build 0)  -->
<!DOCTYPE svg PUBLIC "-//W3C//DTD SVG 1.1//EN" "http://www.w3.org/Graphics/SVG/1.1/DTD/svg11.dtd">
<svg version="1.1" id="Layer_1" xmlns="http://www.w3.org/2000/svg" xmlns:xlink="http://www.w3.org/1999/xlink" x="0px" y="0px"
	 width="576.851px" height="139.285px" viewBox="0 0 576.851 139.285" enable-background="new 0 0 576.851 139.285"
	 xml:space="preserve">
<g>
	<path fill="#FFFFFF" d="M215.193,65.041c-10.883-3.4-13.829-6.689-12.923-11.222c0.909-4.763,5.329-7.94,10.88-7.94
		c5.671,0,9.411,3.404,10.205,9.75c4.082-0.34,9.524-1.471,13.265-3.17c2.495-1.135,3.855-2.836,4.192-4.65
		c0.343-1.586,0.116-2.834-0.453-4.422c-2.831-6.916-11.107-12.922-24.711-12.922c-16.889,0-29.811,10.086-32.533,23.805
		c-2.493,13.035,4.195,20.969,19.273,25.729c10.653,3.402,13.147,5.787,12.353,10.096c-0.907,4.418-5.215,7.02-13.715,7.02
		c-7.029,0-14.622-1.582-19.725-4.419c-1.924,2.155-3.964,5.669-4.422,8.505c-1.131,5.439,7.934,11.332,23.578,11.332
		c18.707,0,30.835-9.748,33.44-23.238C236.279,77.281,230.27,69.914,215.193,65.041 M281.245,49.283
		c-7.367,0-14.168,3.404-19.498,9.637l1.023-4.992c0.451-2.604-0.909-4.078-4.196-4.078c-5.213,0-9.633,0.68-13.376,1.586
		l-15.64,80.48c-0.456,2.156,0.564,3.403,3.398,3.403h13.943l5.442-28.226c2.718,3.512,7.253,5.438,13.264,5.438
		c14.733,0,31.057-12.693,35.249-34.115C304.256,60.619,295.525,49.283,281.245,49.283 M282.605,78.869
		c-2.267,11.447-10.204,19.605-19.044,19.605c-3.854,0-6.8-1.018-8.836-3.28l4.076-21.315c3.858-6.91,9.75-10.543,14.964-10.543
		C281.471,63.336,284.532,68.895,282.605,78.869 M341.996,49.283c-16.554,0-33.55,11.449-37.522,31.621
		c-3.848,20.184,8.615,31.627,25.168,31.627c16.549,0,33.553-11.443,37.406-31.627C371.014,60.732,358.543,49.283,341.996,49.283
		 M348.912,81.479c-2.155,11.561-8.726,16.996-16.099,16.996c-7.82,0-12.355-6.574-10.201-18.131
		c2.27-11.562,8.84-17.008,16.211-17.008C346.645,63.336,351.178,69.914,348.912,81.479 M429.295,50.643h-13.832l-6.805,35.367
		c-1.473,7.48-6.57,11.9-12.691,11.9c-6.238,0-9.301-4.42-7.824-11.9l6.236-32.19c0.452-2.61-0.91-3.97-4.195-3.97
		c-5.103,0-9.408,0.566-13.264,1.475l-6.574,34.008c-3.293,16.889,6.01,27.088,22.783,27.088c16.779,0,30.268-10.199,33.553-27.088
		l6.125-31.404C433.143,51.775,432.124,50.643,429.295,50.643 M463.584,98.59c-5.33,0-7.824-2.492-6.576-8.727l4.875-25.277h18.477
		l1.926-9.863c0.57-2.834-0.34-4.08-2.492-4.08h-15.191l2.836-14.172c0.451-2.604-1.018-3.967-4.309-3.967
		c-5.215,0-9.404,0.568-13.148,1.588l-3.287,16.551h-9.068c-0.91,2.045-2.268,6.465-2.837,9.637
		c-0.558,2.945,0.343,4.307,2.724,4.307h6.459l-4.986,25.842c-2.605,13.605,3.059,22.104,16.326,22.104
		c9.859,0,17-4.758,17.797-8.498c0.449-2.268-0.115-5.326-1.02-6.92C469.708,98.021,466.53,98.59,463.584,98.59 M510.458,104.145
		c0.453-2.607,0-5.781-0.906-7.48c-1.929,0.793-4.533,1.246-6.799,1.246c-3.971,0-5.779-2.266-4.648-7.936L509.442,31.6
		c0.447-2.607-0.797-3.971-4.084-3.971c-5.215,0-9.406,0.568-13.373,1.59l-11.791,60.756c-2.611,13.6,1.133,21.99,14.17,21.99
		C503.205,111.965,509.776,107.547,510.458,104.145 M573.276,50.643h-13.832l-8.5,43.758c-3.742,2.6-8.162,4.189-11.904,4.189
		c-5.779,0-8.389-3.625-6.916-10.883l6.463-33.438c0.568-2.605-0.91-3.965-4.078-3.965c-5.219,0-9.525,0.564-13.377,1.471
		l-6.805,35.477c-2.268,11.223-0.223,18.934,5.671,22.561c-6.579,2.943-10.997,8.049-12.015,13.49
		c-1.818,9.066,5.551,15.982,20.064,15.982c21.984,0,34.797-13.607,37.746-28.791l10.996-56.566
		C577.124,51.775,576.106,50.643,573.276,50.643 M547.768,111.174c-1.926,9.406-8.389,14.504-15.645,14.504
		c-4.419,0-6.352-2.262-5.783-5.547c0.568-3.066,2.616-6.578,7.486-8.053c5.328-0.68,10.426-3.061,15.189-7.367L547.768,111.174z"/>
	<path fill="#FFFFFF" d="M87.545,121.424c-0.554-1.615-13.899-39.5-39.04-39.5c-2.193,0-4.608,0.371-6.725,0.93
		c-5.945,1.58-10.303,7.326-10.307,13.469c-0.004,6.596,4.425,11.879,11.285,13.459c3.107,0.717,6.189,0.891,9.166,1.055
		c8.527,0.475,17.344,0.967,30.653,13.762c0.582,0.555,1.339,0.846,2.103,0.846C86.721,125.443,88.209,123.354,87.545,121.424
		 M52.263,104.781c-2.849-0.16-5.541-0.309-8.144-0.912c-4.855-1.115-6.585-4.629-6.582-7.543c0.004-6.016,5.763-8.344,10.968-8.344
		c13.043,0,22.766,13.756,28.24,24.121C66.781,105.59,58.905,105.152,52.263,104.781"/>
	<path fill="#FFFFFF" d="M49.148,92.42c2.982-0.264,5.957,0.027,8.776,0.859c-0.115-0.072-0.224-0.158-0.343-0.232
		C54.267,91,50.378,90.152,46.485,90.5c-3.255,0.291-6.521,2.143-6.523,5.826c0,0.523,0.104,1.713,0.897,2.852
		C41.25,94.926,45.199,92.774,49.148,92.42"/>
	<path fill="#FFFFFF" d="M75.859,66.307c6.039-4.9,9.338-11.021,9.338-17.434c0-15.566-18.713-27.76-42.598-27.76
		C18.709,21.113,0,33.307,0,48.873c0,15.57,18.709,27.762,42.599,27.762c6.132,0,12.03-0.816,17.556-2.432l15.854,12.453
		c0.547,0.434,1.21,0.65,1.872,0.65c0.59,0,1.181-0.172,1.695-0.52c1.09-0.732,1.583-2.09,1.218-3.354L75.859,66.307z
		 M69.457,65.994l2.909,10.092l-9.714-7.631c-0.542-0.428-1.202-0.65-1.875-0.65c-0.313,0-0.627,0.049-0.932,0.148
		c-5.291,1.715-11.253,2.619-17.246,2.619c-19.806,0-36.536-9.938-36.536-21.699c0-11.76,16.73-21.695,36.536-21.695
		c19.803,0,36.534,9.936,36.534,21.695c0,4.984-3.027,9.889-8.525,13.812C69.563,63.434,69.102,64.758,69.457,65.994"/>
	<path fill="#FFFFFF" d="M16.169,52.238c0-9.621,15.372-18.059,32.896-18.059c6.91,0,13.48,1.314,18.909,3.494
		c-6.142-4.125-15.409-6.859-25.376-6.859c-17.525,0-32.896,8.441-32.896,18.059c0,5.83,5.645,11.221,13.987,14.566
		C19.031,60.314,16.169,56.387,16.169,52.238"/>
	<path fill="#FFFFFF" d="M155.387,81.514c-0.858-8.426-8.094-16.957-20.266-16.957c-1.36,0-2.761,0.109-4.17,0.334
		c-39.078,6.141-39.626,61.346-39.631,63.691c-0.003,1.521,1.12,2.805,2.624,3.01c0.138,0.018,0.275,0.029,0.41,0.029
		c1.347,0,2.555-0.898,2.921-2.229c5.817-21.178,23.919-24.631,37.139-27.146c1.19-0.232,2.328-0.447,3.393-0.664
		C151.993,98.664,156.144,88.945,155.387,81.514 M136.588,95.639c-1.039,0.215-2.147,0.426-3.31,0.648
		c-9.785,1.861-24.493,4.668-34.154,16.305c2.972-15.867,11.017-38.295,32.768-41.711c1.099-0.174,2.185-0.26,3.229-0.26
		c8.575,0,13.652,5.788,14.231,11.508C149.88,87.283,146.801,93.541,136.588,95.639"/>
	<path fill="#FFFFFF" d="M129.523,77.941c1.09-0.172,2.164-0.26,3.19-0.26c7.639,0,12.266,4.807,13.115,9.76
		c1.204-2.094,1.208-4.115,1.114-5.068c-0.472-4.635-4.683-9.327-11.821-9.327c-0.919,0-1.877,0.077-2.85,0.229
		c-9.493,1.492-16.235,6.895-21.027,13.922C116.002,82.518,121.987,79.123,129.523,77.941"/>
	<path fill="#FFFFFF" d="M166.87,14.643c-2.235-3.191-5.579-5.32-9.416-5.996l-47.767-8.422c-0.842-0.15-1.7-0.225-2.549-0.225
		c-7.081,0-13.115,5.066-14.347,12.053l-3.958,22.461c-1.398,7.918,3.908,15.496,11.828,16.893l0.973,0.17l-8.366,22.232
		c-0.496,1.316-0.021,2.801,1.147,3.584c0.514,0.348,1.102,0.518,1.689,0.518c0.744,0,1.485-0.275,2.064-0.814l23.659-21.959
		l26.603,4.689c0.841,0.15,1.698,0.225,2.545,0.225c7.082,0,13.117-5.068,14.349-12.051l3.96-22.461
		C169.96,21.703,169.102,17.834,166.87,14.643 M163.314,24.486l-3.961,22.461c-0.72,4.078-4.242,7.043-8.378,7.043
		c-0.496,0-0.996-0.047-1.493-0.133l-28.085-4.953c-0.937-0.166-1.895,0.117-2.592,0.766l-15.328,14.229l5.12-13.604
		c0.316-0.844,0.243-1.788-0.203-2.57c-0.448-0.783-1.219-1.326-2.109-1.482l-4.57-0.809c-4.626-0.814-7.728-5.244-6.912-9.869
		l3.959-22.459c0.72-4.082,4.243-7.043,8.376-7.043c0.496,0,1.001,0.045,1.495,0.131l47.769,8.424
		c2.241,0.395,4.194,1.641,5.5,3.502C163.207,19.984,163.707,22.244,163.314,24.486"/>
	<path fill="#FFFFFF" d="M106.285,19.281c0.442-2.512,2.609-4.338,5.147-4.338c0.308,0,0.618,0.029,0.928,0.084l47.406,8.359
		c0.09-1.129-0.189-2.24-0.845-3.18c-0.748-1.068-1.869-1.78-3.152-2.006l-47.767-8.424c-0.288-0.051-0.578-0.076-0.864-0.076
		c-2.365,0-4.379,1.697-4.792,4.035l-3.959,22.459c-0.466,2.639,1.292,5.16,3.922,5.646L106.285,19.281z"/>
</g>
</svg>
